{
  "accessors": [
    {
      "bufferView": 2,
      "componentType": 5126,
      "count": 65532,
      "max": [
        249.02117919921875,
        419.2945556640625,
        171.71267700195313
      ],
      "min": [
        -249.02117919921875,
        -419.2945556640625,
        -171.71267700195313
      ],
      "type": "VEC3"
    },
    {
      "bufferView": 2,
      "byteOffset": 786384,
      "componentType": 5126,
      "count": 65532,
      "max": [
        0.9999998807907104,
        0.9999459385871887,
        1.0
      ],
      "min": [
        -0.9999986886978149,
        -0.9999998807907104,
        -0.9999996423721313
      ],
      "type": "VEC3"
    },
    {
      "bufferView": 1,
      "componentType": 5126,
      "count": 65532,
      "max": [
        2.7306768894195557,
        1.2860770225524902
      ],
      "min": [
        -1.7987840175628662,
        -1.649122714996338
      ],
      "type": "VEC2"
    },
    {
      "bufferView": 1,
      "byteOffset": 524256,
      "componentType": 5126,
      "count": 65532,
      "max": [
        1.3197600841522217,
        0.9991533160209656
      ],
      "min": [
        0.00036003836430609226,
        0.08028960227966309
      ],
      "type": "VEC2"
    },
    {
      "bufferView": 0,
      "componentType": 5125,
      "count": 357069,
      "type": "SCALAR"
    },
    {
      "bufferView": 2,
      "byteOffset": 1572768,
      "componentType": 5126,
      "count": 40197,
      "max": [
        249.00048828125,
        411.5220642089844,
        160.4623260498047
      ],
      "min": [
        -247.9289093017578,
        -419.2405090332031,
        -171.71267700195313
      ],
      "type": "VEC3"
    },
    {
      "bufferView": 2,
      "byteOffset": 2055132,
      "componentType": 5126,
      "count": 40197,
      "max": [
        0.9999998807907104,
        0.9996797442436218,
        0.9999995231628418
      ],
      "min": [
        -1.0,
        -0.9999487996101379,
        -0.9999998807907104
      ],
      "type": "VEC3"
    },
    {
      "bufferView": 1,
      "byteOffset": 1048512,
      "componentType": 5126,
      "count": 40197,
      "max": [
        2.729275941848755,
        1.2821999788284302
      ],
      "min": [
        -1.7674239873886108,
        -1.649122714996338
      ],
      "type": "VEC2"
    },
    {
      "bufferView": 1,
      "byteOffset": 1370088,
      "componentType": 5126,
      "count": 40197,
      "max": [
        1.0022921562194824,
        0.9550333023071289
      ],
      "min": [
        5.617716851702426e-06,
        0.081520676612854
      ],
      "type": "VEC2"
    },
    {
      "bufferView": 0,
      "byteOffset": 1428276,
      "componentType": 5125,
      "count": 187383,
      "type": "SCALAR"
    },
    {
      "bufferView": 2,
      "byteOffset": 2537496,
      "componentType": 5126,
      "count": 9346,
      "max": [
        170.8647918701172,
        272.24615478515625,
        35.62966537475586
      ],
      "min": [
        -170.8647918701172,
        -272.24615478515625,
        -35.62966537475586
      ],
      "type": "VEC3"
    },
    {
      "bufferView": 2,
      "byteOffset": 2649648,
      "componentType": 5126,
      "count": 9346,
      "max": [
        0.9993433952331543,
        0.983173131942749,
        0.9996705651283264
      ],
      "min": [
        -0.999342143535614,
        -0.9831932187080383,
        -0.9996706247329712
      ],
      "type": "VEC3"
    },
    {
      "bufferView": 3,
      "componentType": 5126,
      "count": 9346,
      "max": [
        0.9859511256217957,
        0.6999641060829163,
        0.9997859597206116,
        1.0
      ],
      "min": [
        -0.9724454879760742,
        -0.7300238013267517,
        -0.999814510345459,
        1.0
      ],
      "type": "VEC4"
    },
    {
      "bufferView": 1,
      "byteOffset": 1691664,
      "componentType": 5126,
      "count": 9346,
      "max": [
        0.6770739555358887,
        0.9919731020927429
      ],
      "min": [
        0.23700487613677979,
        0.011973142623901367
      ],
      "type": "VEC2"
    },
    {
      "bufferView": 1,
      "byteOffset": 1766432,
      "componentType": 5126,
      "count": 9346,
      "max": [
        0.6770739555358887,
        0.9919731020927429
      ],
      "min": [
        0.23700487613677979,
        0.011973142623901367
      ],
      "type": "VEC2"
    },
    {
      "bufferView": 1,
      "byteOffset": 1841200,
      "componentType": 5126,
      "count": 9346,
      "max": [
        0.6770739555358887,
        0.9919731020927429
      ],
      "min": [
        0.23700487613677979,
        0.011973142623901367
      ],
      "type": "VEC2"
    },
    {
      "bufferView": 1,
      "byteOffset": 1915968,
      "componentType": 5126,
      "count": 9346,
      "max": [
        0.6770739555358887,
        0.9919731020927429
      ],
      "min": [
        0.23700487613677979,
        0.011973142623901367
      ],
      "type": "VEC2"
    },
    {
      "bufferView": 0,
      "byteOffset": 2177808,
      "componentType": 5125,
      "count": 14244,
      "type": "SCALAR"
    },
    {
      "bufferView": 2,
      "byteOffset": 2761800,
      "componentType": 5126,
      "count": 2844,
      "max": [
        220.0,
        170.0,
        420.0
      ],
      "min": [
        -220.0,
        -20.0,
        -420.0
      ],
      "type": "VEC3"
    },
    {
      "bufferView": 2,
      "byteOffset": 2795928,
      "componentType": 5126,
      "count": 2844,
      "max": [
        1.0,
        1.0,
        1.0
      ],
      "min": [
        -1.0,
        -1.0,
        -1.0
      ],
      "type": "VEC3"
    },
    {
      "bufferView": 1,
      "byteOffset": 1990736,
      "componentType": 5126,
      "count": 2844,
      "max": [
        1.0,
        1.0
      ],
      "min": [
        0.0,
        0.0
      ],
      "type": "VEC2"
    },
    {
      "bufferView": 0,
      "byteOffset": 2234784,
      "componentType": 5125,
      "count": 13776,
      "type": "SCALAR"
    }
  ],
  "asset": {
    "extras": {
      "author": "DANIEL WEINLEIN (https://sketchfab.com/danielweinlein)",
      "license": "CC-BY-NC-4.0 (http://creativecommons.org/licenses/by-nc/4.0/)",
      "source": "https://sketchfab.com/3d-models/ice-cream-bf4ff7b32353493f8bea7835ebdf7e18",
      "title": "Ice Cream"
    },
    "generator": "Sketchfab-12.68.0",
    "version": "2.0"
  },
  "bufferViews": [
    {
      "buffer": 0,
      "byteLength": 2289888,
      "name": "floatBufferViews",
      "target": 34963
    },
    {
      "buffer": 0,
      "byteLength": 2013488,
      "byteOffset": 2289888,
      "byteStride": 8,
      "name": "floatBufferViews",
      "target": 34962
    },
    {
      "buffer": 0,
      "byteLength": 2830056,
      "byteOffset": 4303376,
      "byteStride": 12,
      "name": "floatBufferViews",
      "target": 34962
    },
    {
      "buffer": 0,
      "byteLength": 149536,
      "byteOffset": 7133432,
      "byteStride": 16,
      "name": "floatBufferViews",
      "target": 34962
    }
  ],
  "buffers": [
    {
      "byteLength": 7282968,
      "uri": "scene.bin"
    }
  ],
  "images": [
    {
      "uri": "textures/material_baseColor.png"
    },
    {
      "uri": "textures/material_metallicRoughness.png"
    },
    {
      "uri": "textures/material_normal.png"
    }
  ],
  "materials": [
    {
      "name": "chocolate",
      "pbrMetallicRoughness": {
        "baseColorFactor": [
          0.0714984773,
          0.0174184094,
          0.0,
          1.0
        ],
        "metallicFactor": 0.0,
        "roughnessFactor": 0.13852896339999998
      }
    },
    {
      "doubleSided": true,
      "name": "material",
      "normalTexture": {
        "index": 2
      },
      "pbrMetallicRoughness": {
        "baseColorTexture": {
          "index": 0
        },
        "metallicFactor": 0.0504954268,
        "metallicRoughnessTexture": {
          "index": 1
        }
      }
    },
    {
      "doubleSided": true,
      "name": "material_2",
      "pbrMetallicRoughness": {
        "baseColorFactor": [
          1.0,
          0.9543136106,
          0.4159183584,
          1.0
        ],
        "metallicFactor": 0.0
      }
    }
  ],
  "meshes": [
    {
      "name": "schoki_chocolate_1",
      "primitives": [
        {
          "attributes": {
            "NORMAL": 1,
            "POSITION": 0,
            "TEXCOORD_0": 2,
            "TEXCOORD_1": 3
          },
          "indices": 4,
          "material": 0,
          "mode": 4
        }
      ]
    },
    {
      "name": "schoki_chocolate_1",
      "primitives": [
        {
          "attributes": {
            "NORMAL": 6,
            "POSITION": 5,
            "TEXCOORD_0": 7,
            "TEXCOORD_1": 8
          },
          "indices": 9,
          "material": 0,
          "mode": 4
        }
      ]
    },
    {
      "name": "stiel_1_Mat_0",
      "primitives": [
        {
          "attributes": {
            "NORMAL": 11,
            "POSITION": 10,
            "TANGENT": 12,
            "TEXCOORD_0": 13,
            "TEXCOORD_1": 14,
            "TEXCOORD_2": 15,
            "TEXCOORD_3": 16
          },
          "indices": 17,
          "material": 1,
          "mode": 4
        }
      ]
    },
    {
      "name": "eis_ice_0",
      "primitives": [
        {
          "attributes": {
            "NORMAL": 19,
            "POSITION": 18,
            "TEXCOORD_0": 20
          },
          "indices": 21,
          "material": 2,
          "mode": 4
        }
      ]
    }
  ],
  "nodes": [
    {
      "children": [
        1
      ],
      "matrix": [
        1.0,
        0.0,
        0.0,
        0.0,
        0.0,
        2.220446049250313e-16,
        -1.0,
        0.0,
        0.0,
        1.0,
        2.220446049250313e-16,
        0.0,
        0.0,
        0.0,
        0.0,
        1.0
      ],
      "name": "Sketchfab_model"
    },
    {
      "children": [
        2
      ],
      "matrix": [
        1.0,
        0.0,
        0.0,
        0.0,
        0.0,
        0.0,
        1.0,
        0.0,
        0.0,
        -1.0,
        0.0,
        0.0,
        0.0,
        0.0,
        0.0,
        1.0
      ],
      "name": "summertime_eis_sketchfab.c4d.fbx"
    },
    {
      "children": [
        3
      ],
      "name": "RootNode"
    },
    {
      "children": [
        4,
        7,
        9
      ],
      "matrix": [
        0.8092377447815237,
        0.424828285590114,
        -0.4057772790379942,
        0.0,
        -0.3490315309696994,
        -0.20792155002631363,
        -0.9137535879128481,
        0.0,
        -0.47255821102787043,
        0.881072957703969,
        -0.01997949931602272,
        0.0,
        0.0,
        0.0,
        0.0,
        1.0
      ],
      "name": "Magnum"
    },
    {
      "children": [
        5,
        6
      ],
      "matrix": [
        1.0,
        5.5511151231257815e-17,
        1.7000290064572707e-16,
        0.0,
        -1.7000290064572705e-16,
        -2.220446049250313e-16,
        1.0,
        0.0,
        5.551115123125785e-17,
        -1.0,
        -2.220446049250313e-16,
        0.0,
        0.7505083084106445,
        68.7337417602539,
        49.11365509033203,
        1.0
      ],
      "name": "schoki"
    },
    {
      "mesh": 0,
      "name": "schoki_chocolate_1"
    },
    {
      "mesh": 1,
      "name": "schoki_chocolate_1"
    },
    {
      "children": [
        8
      ],
      "matrix": [
        0.8092377447815237,
        -0.3490315309696993,
        -0.4725582110278705,
        0.0,
        0.4248282855901141,
        -0.20792155002631363,
        0.8810729577039689,
        0.0,
        -0.40577727903799393,
        -0.9137535879128482,
        -0.01997949931602272,
        0.0,
        -4.674602508544922,
        70.19900512695313,
        -579.9710083007813,
        1.0
      ],
      "name": "stiel_1"
    },
    {
      "mesh": 2,
      "name": "stiel_1_Mat_0"
    },
    {
      "children": [
        10
      ],
      "matrix": [
        1.0,
        5.5511151231257815e-17,
        5.898059818321143e-17,
        0.0,
        -5.5511151231257815e-17,
        1.0,
        -1.0408340855860841e-17,
        0.0,
        -5.898059818321143e-17,
        1.0408340855860838e-17,
        1.0,
        0.0,
        0.0,
        0.0,
        0.0,
        1.0
      ],
      "name": "eis"
    },
    {
      "mesh": 3,
      "name": "eis_ice_0"
    }
  ],
  "samplers": [
    {
      "magFilter": 9729,
      "minFilter": 9987,
      "wrapS": 10497,
      "wrapT": 10497
    }
  ],
  "scene": 0,
  "scenes": [
    {
      "name": "Sketchfab_Scene",
      "nodes": [
        0
      ]
    }
  ],
  "textures": [
    {
      "sampler": 0,
      "source": 0
    },
    {
      "sampler": 0,
      "source": 1
    },
    {
      "sampler": 0,
      "source": 2
    }
  ]
}
